<svg width="780" height="994" viewBox="0 0 780 994" fill="none" xmlns="http://www.w3.org/2000/svg">
<path d="M36 230.758L190.888 717.511C192.007 721.029 196.89 721.281 198.366 717.897L319.662 439.725C321.137 436.342 326.017 436.591 327.139 440.107L491.51 955.044C492.919 959.457 499.45 958.346 499.319 953.715L475.917 121.681C475.832 118.658 479.002 116.638 481.706 117.992L707 230.758" stroke="white" stroke-width="72" stroke-linecap="round"/>
<rect x="199.929" y="565" width="47.6744" height="44.3865" rx="6" transform="rotate(46 199.929 565)" fill="white"/>
<rect x="515.244" y="164" width="41.9031" height="39.0133" rx="6" transform="rotate(23 515.244 164)" fill="white"/>
<path d="M516.646 33.0186L524.733 21.9403L572.817 45.9139L564.73 56.9923L548.09 48.6958L519.409 88.3614L504.606 80.9807L533.286 41.3151L516.646 33.0186ZM559.958 108.579L596.726 57.8346L620.606 69.7406C624.712 71.7878 627.806 74.2636 629.888 77.168C631.97 80.0724 632.932 83.2391 632.774 86.668C632.616 90.0969 631.234 93.6127 628.628 97.2154C626.005 100.854 622.907 103.481 619.336 105.096C615.793 106.702 611.969 107.359 607.865 107.066C603.787 106.765 599.642 105.564 595.428 103.463L581.165 96.3514L588.928 85.6514L600.166 91.2542C601.931 92.1341 603.587 92.6902 605.135 92.9224C606.692 93.1366 608.123 92.973 609.427 92.4316C610.741 91.8721 611.918 90.8629 612.961 89.4038C614.003 87.9447 614.519 86.5942 614.508 85.3523C614.507 84.0924 614.038 82.9366 613.101 81.8847C612.172 80.8148 610.844 79.8489 609.115 78.9869L603.82 76.3471L574.978 116.067L559.958 108.579ZM609.249 101.449L606.205 131.636L589.889 123.501L593.257 93.4759L609.249 101.449ZM629.77 143.385L666.537 92.6413L706.409 112.521L698.322 123.599L673.47 111.208L667.216 119.963L690.016 131.33L681.929 142.408L659.13 131.041L652.876 139.795L677.62 152.132L669.533 163.211L629.77 143.385ZM695.347 176.081L732.115 125.337L771.986 145.216L763.899 156.295L739.047 143.904L732.794 152.658L755.593 164.025L747.506 175.104L724.707 163.736L718.453 172.491L743.197 184.828L735.111 195.906L695.347 176.081Z" fill="white"/>
</svg>
